<?xml version="1.0" encoding="UTF-8" standalone="no"?>
<svg width="114px" height="31px" viewBox="0 0 114 31" version="1.1" xmlns="http://www.w3.org/2000/svg" xmlns:xlink="http://www.w3.org/1999/xlink" xmlns:sketch="http://www.bohemiancoding.com/sketch/ns">
    <!-- Generator: Sketch 3.3.1 (12005) - http://www.bohemiancoding.com/sketch -->
    <title>logo</title>
    <desc>Created with Sketch.</desc>
    <defs></defs>
    <g id="Page-1" stroke="none" stroke-width="1" fill="none" fill-rule="evenodd" sketch:type="MSPage">
        <g id="logo" sketch:type="MSLayerGroup" transform="translate(0.004556, 0.000000)">
            <path d="M38.5319891,19.3957047 C38.4307353,19.2718557 38.2022348,19.1602387 36.4445644,19.0506604 C36.3630177,18.1509288 36.1338376,16.6017121 35.510855,14.23499 C34.3929861,9.98657853 32.5304943,6.61462387 29.9751955,4.21256488 C27.4185376,1.80914677 23.8199512,0.446637888 19.2800104,0.162923444 C19.0870166,0.150861333 18.8867176,0.144745333 18.6850595,0.144745333 C15.6996021,0.144745333 12.4263529,1.48992555 10.2239133,2.50178377 C9.81465098,2.68985077 9.40012209,2.78515844 8.99136942,2.78515844 C7.44707943,2.78515844 6.39835532,1.41262611 6.38816198,1.39886511 L5.98875321,0.862695776 L6.05212176,1.52798066 C6.05331098,1.54106211 6.18395554,2.90272155 6.37643965,4.05694666 C6.44660376,4.47776143 6.61411421,5.12435854 7.01352298,5.83857143 C5.85708932,7.04546209 4.85423521,8.12357698 3.8009241,11.7795859 C3.04152077,14.4147324 2.80112799,17.6716723 2.73096388,19.0285748 C1.33583633,19.1160676 0.545003554,19.2283642 0.379701666,19.3622366 C0.183140222,19.5210827 0.128775777,20.2609488 0.116883555,20.4841828 C0.086813222,21.0561987 0.148652777,21.4233286 0.300703333,21.5750394 C0.422003999,21.6961702 0.597329332,21.7546119 0.783187776,21.8164515 C1.07352789,21.9127785 1.34772855,22.0041787 1.41041755,22.3181334 C1.486188,22.6966458 1.614624,23.7003494 1.75036522,24.7631743 C1.94098055,26.2536095 2.13788177,27.7945017 2.25510511,28.1458319 C2.39934077,28.578369 3.12595555,30.0008487 6.42366876,30.1442349 C7.99599042,30.2123604 9.80224909,30.2821847 11.2767147,30.2821847 C12.750331,30.2821847 13.6746964,30.21287 14.1024766,30.0703333 C14.5892083,29.9079195 16.0701297,29.4140525 16.9282385,27.0541259 C17.5755152,25.2740302 18.1560255,23.9616385 18.6532903,23.1533072 C18.7243038,23.0379526 19.0148138,22.9214088 19.4327405,22.9214088 C19.8559337,22.9214088 20.1598649,23.0444084 20.2310484,23.1599328 C20.7286529,23.9682642 21.3089934,25.2806558 21.9562701,27.0607516 C22.8145487,29.4211878 24.2953003,29.9145451 24.7820319,30.0769589 C25.2098122,30.2193258 26.1343475,30.2888104 27.6083035,30.2888104 L27.6088132,30.2888104 C29.0849777,30.2888104 30.8900471,30.218986 32.4608398,30.1508606 C35.758553,30.0071346 36.4851678,28.5848248 36.6294035,28.1522877 C36.746287,27.8019768 36.9430184,26.2632932 37.1348229,24.7628345 C37.2703942,23.7032375 37.3983206,22.7025919 37.4739211,22.3244193 C37.5342317,22.0237159 37.7640914,21.9479455 38.0554508,21.8519583 C38.2460661,21.7890994 38.4433071,21.7242018 38.5848246,21.5801361 C38.9612983,21.1982258 38.71411,19.6184291 38.5319891,19.3957047 M21.8607925,22.0135226 C22.0957488,21.1329885 22.8685734,20.5929117 24.1580301,20.4085823 C25.463796,20.2222142 33.7348366,20.0949674 34.1818142,20.0883417 C34.3019257,20.1070295 35.0951369,20.2482072 35.4661742,20.7254251 C35.8618455,21.2345821 35.877815,21.7476465 35.8783247,21.7639558 C35.7889631,23.8948722 35.6304568,27.1728783 35.5606325,27.469844 C35.342665,28.3965879 34.5717092,28.8632727 32.8113206,29.1344154 C32.0442723,29.2523183 30.5382073,29.3257103 28.8807713,29.3257103 C27.2568034,29.3257103 25.9712542,29.2529978 25.6056533,29.1403615 C24.8447209,28.9059148 23.5163597,27.9817193 23.0822936,26.7415304 C23.0209637,26.5660352 22.9487609,26.3669254 22.8650057,26.1353668 C22.3826912,24.803268 21.6536979,22.7899148 21.8607925,22.0135226 M4.1954061,18.9691137 C4.27236577,18.1633307 4.40623821,16.8935812 4.61724021,15.2743702 C5.0791681,11.7332062 6.58574276,9.3571402 7.03628809,8.71326131 C7.31558543,8.31453209 7.80843309,7.94247542 8.50191953,7.60711476 C9.51887442,8.45027331 10.8479152,9.06442164 12.4533652,9.43325042 C12.9400969,9.54503731 13.4733781,9.6017802 14.0382586,9.6017802 C18.6911755,9.6017802 24.528048,5.77571254 24.5684816,5.74547232 C24.5946445,5.73408976 25.2140594,5.46804376 25.9909613,5.46804376 C26.5826843,5.46804376 27.1067915,5.62094376 27.5488424,5.92215676 C29.0426754,6.94081054 31.2575168,9.07087742 32.58282,11.7214839 C33.7883516,14.1322072 34.4154115,17.5242087 34.6420432,18.9745502 C33.8078888,18.9577312 32.6305588,18.9485572 31.3086534,18.9485572 C28.5245143,18.9485572 25.2261215,18.99018 24.3087215,19.0698578 C22.9319419,19.1897994 21.5532936,20.0278613 21.2379798,20.2303688 L17.6468685,20.2237432 C17.3318945,20.0215754 15.9530763,19.1831737 14.5756172,19.0634021 C13.6590666,18.9837242 10.3601642,18.9419315 7.57517565,18.9419315 C6.22574821,18.9419315 5.03159921,18.9514453 4.1954061,18.9691137 M16.0188233,26.1306099 C15.9388056,26.3516354 15.864904,26.555502 15.802215,26.7350746 C15.367979,27.9752635 14.0399575,28.899459 13.2788553,29.1339057 C12.9130845,29.2462023 11.6275353,29.3190846 10.0037373,29.3190846 C8.34630131,29.3190846 6.84006643,29.2455227 6.07318798,29.1277897 C4.31279932,28.8568169 3.54201344,28.3901322 3.3238761,27.4635582 C3.25422166,27.1676117 3.09571533,23.8914744 3.00618388,21.7656547 C3.00618388,21.7603882 3.01518799,21.2373003 3.41850421,20.7189693 C3.7917501,20.2388633 4.61333277,20.0959867 4.70269432,20.0818859 C4.99609243,20.0861332 13.426149,20.2162681 14.7264785,20.4021265 C16.0157653,20.5862861 16.7885898,21.1261929 17.0235462,22.0068969 C17.2308106,22.7839687 16.5014776,24.7978316 16.0188233,26.1306099" id="Fill-1" fill="#1A1918" sketch:type="MSShapeGroup"></path>
            <path d="M76.127041,26.4330122 C76.127041,23.1268045 77.77989,13.0250413 77.77989,12.6117016 C77.77989,9.85695331 75.4383115,9.21443353 73.234173,9.21443353 C75.1333609,13.3500387 73.5807464,19.1925176 73.3172487,24.5671225 C73.2688304,24.6223364 73.2362117,24.7042228 73.2362117,24.8256934 C73.2362117,25.6980728 71.7213125,27.9477415 69.1955744,27.9477415 C68.9663943,27.9477415 67.5428953,27.9937814 67.1757654,26.7537624 C71.4916227,26.7537624 72.6854319,23.6318842 72.6854319,22.2999553 C72.6854319,19.545207 71.1244928,18.5810875 68.5530546,18.5810875 C65.4767066,18.5810875 63.2725682,21.2901357 63.2725682,24.8256934 C63.2725682,25.4848623 63.3541148,26.0855894 63.5126212,26.6219286 C63.0444074,27.0576936 62.5284548,27.4424919 62.0342481,27.4424919 C61.7134978,27.4424919 61.7588582,27.1217417 61.7588582,27.0755319 C61.7588582,25.330773 62.4477576,18.8564774 62.8155671,15.4128296 C69.3355628,15.18297 69.7482229,14.90775 70.0242924,14.7696303 C71.3555417,14.4025004 72.4117409,13.5302909 72.4117409,12.106622 C72.4117409,11.4178924 72.2277513,10.7291629 72.090481,10.1783831 L71.8150912,9.21443353 C70.4831623,11.6477521 65.2026758,12.5199616 62.9990471,12.7498213 C62.6312376,9.44344375 58.6825102,9.85695331 57.4431707,9.85695331 C58.4071203,10.5456829 58.5907702,12.198362 58.5907702,13.1169512 C56.919913,13.1169512 47.9069677,12.9101964 47.4136103,12.9616727 C47.0458009,9.6552952 43.2574486,9.85695331 42.0179392,9.85695331 C42.9820587,10.5456829 43.1655387,12.198362 43.1655387,13.1169512 C40.5487401,13.1169512 38.023002,14.3107604 38.023002,15.3666199 C38.023002,16.239509 38.6417373,16.68139 38.7117316,16.744079 C39.8138008,15.2748799 41.6963396,15.5509493 43.1655387,15.5509493 C43.9006479,24.6875737 42.568719,29.9220203 44.9563374,29.5550603 C46.7114596,29.5550603 47.9723749,28.3575135 48.7487671,27.2656376 C49.0741043,28.8515504 49.8656167,29.96823 51.6581143,29.96823 C52.7601835,29.96823 53.8615732,29.4169406 54.8262023,28.544731 C54.8262023,29.4169406 54.9636424,30.3353599 56.4790513,30.3353599 C56.9377513,30.3353599 57.2138207,30.3353599 57.3514307,30.2899996 C57.4893805,30.2436199 57.5811205,30.2436199 57.6266507,30.1980897 C56.5707913,29.3252006 58.36176,21.8409155 58.1779402,21.1059762 C58.1779402,18.7190373 55.652372,19.0861672 54.5047725,19.0861672 C55.2390323,21.4737856 55.4231919,28.1312215 51.8871245,28.1312215 C51.4744644,28.1312215 51.0611248,28.1312215 51.0611248,26.891882 C51.0611248,25.7898128 51.2447746,24.0452238 51.5662044,22.5298149 C51.7036445,21.6572656 51.8415943,20.7390162 52.0707744,19.7747268 C52.0707744,17.5252281 49.4539759,17.8461482 48.3981164,17.8461482 C49.0200797,19.687404 48.3683859,23.3158908 48.5933188,26.1253434 C48.0117891,26.7136686 47.2899312,27.4424919 46.6091864,27.4424919 C46.2882663,27.4424919 46.3339664,27.1217417 46.3339664,27.0755319 C46.3339664,25.372056 47.0125027,18.886208 47.3869378,15.375624 C49.6129919,14.4760623 57.2574822,15.5509493 58.5907702,15.5509493 C59.3257095,24.6875737 57.9937806,29.9220203 60.381569,29.5550603 C61.9605163,29.5550603 63.1400548,28.5855044 63.9263006,27.5959016 C64.6532552,28.8486623 65.9731219,29.5550603 67.8181153,29.5550603 C70.2995124,29.5550603 72.451325,28.9562019 73.3118123,26.6776522 C73.4784733,28.5268927 74.3270683,30.4734796 76.4024309,30.4734796 C76.7240306,30.4734796 76.9532107,30.3817396 76.9994205,30.1980897 C76.9994205,30.0139301 76.7695608,29.8302803 76.6314411,29.6468003 C76.0808313,28.4072909 76.127041,26.7537624 76.127041,26.4330122 M66.4868659,24.3661439 C66.4868659,21.7948756 67.2212956,20.7390162 68.2778346,20.7390162 C69.0120944,20.7390162 69.425434,21.4737856 69.425434,22.3461651 C69.425434,23.9990141 67.7725851,24.5958337 66.5325661,24.9629636 C66.5325661,24.7793137 66.4868659,24.5958337 66.4868659,24.3661439" id="Fill-2" fill="#24A9BD" sketch:type="MSShapeGroup"></path>
            <path d="M77.7336803,9.21426364 C79.7998689,13.7137709 77.7790406,20.2339365 77.7790406,25.9734627 C77.7790406,27.9939513 78.55968,30.4733097 80.9017682,30.4733097 C81.2235378,30.4733097 81.4523781,30.3815697 81.4989277,30.1982596 C81.4989277,30.0139301 81.2688981,29.8304501 81.1309484,29.6468003 C80.5803385,28.4074608 80.6263784,26.7537624 80.6263784,26.4330122 C80.6263784,23.1268045 82.2793972,13.0250413 82.2793972,12.6115317 C82.2793972,9.85695331 79.9376488,9.21426364 77.7336803,9.21426364" id="Fill-3" fill="#24A9BD" sketch:type="MSShapeGroup"></path>
            <path d="M91.9194024,21.1059762 C91.9194024,18.7190373 89.3934944,19.0861672 88.2460649,19.0861672 C88.9803247,21.4737856 89.1644842,28.1313914 85.628247,28.1313914 C85.2157568,28.1313914 84.8024171,28.1313914 84.8024171,26.891882 C84.8024171,25.7898128 84.9858971,24.0452238 85.3076667,22.5296451 C85.444767,21.6574355 85.5828867,20.7390162 85.8118969,19.7747268 C85.8118969,17.5250582 83.1950983,17.8461482 82.1392389,17.8461482 C83.2407985,21.1059762 80.3484401,29.96823 85.3994067,29.96823 C86.501306,29.96823 87.6028656,29.4167707 88.5674947,28.544731 C88.5674947,29.4167707 88.7049348,30.3353599 90.2203437,30.3353599 C90.6793834,30.3353599 90.955283,30.3353599 91.0923833,30.2899996 C91.2306729,30.2436199 91.3225828,30.2436199 91.3679431,30.1982596 C90.3120837,29.3250307 92.1030523,21.8409155 91.9194024,21.1059762" id="Fill-4" fill="#24A9BD" sketch:type="MSShapeGroup"></path>
            <path d="M100.732728,22.6677647 C100.181779,22.6677647 99.7686089,22.7131251 99.2635292,22.7131251 C98.5285899,22.1626851 97.9316003,22.0247353 96.5084411,20.9224962 C96.8295311,20.4174165 97.2890805,20.1420266 97.0592209,18.8564774 C96.7377911,17.9839281 95.9573215,17.6624983 95.2230618,17.6624983 C93.7530132,17.6624983 93.0642837,18.8564774 93.2022334,20.1420266 C93.2022334,20.3256765 93.2941433,22.1164753 95.360332,23.3564943 C90.631135,24.8710537 91.962894,30.6109197 96.9674809,30.1980897 C99.2635292,29.96823 101.513198,28.9118609 101.513198,26.5701125 C101.513198,25.9734627 101.375248,25.3764732 101.054328,24.7793137 C104.314326,25.1010833 107.344464,26.4330122 109.686043,27.7640916 C111.017802,28.544731 112.303521,29.4169406 113.49733,30.3353599 C114.002579,29.3714104 114.13985,28.1774313 113.63545,27.2590119 C110.788112,22.7131251 105.324655,22.6677647 100.732728,22.6677647 M95.1311519,19.0861672 C95.1311519,18.9944272 95.2230618,18.9482174 95.452072,18.9482174 C96.3242815,18.9482174 96.0035313,19.8666367 95.8654116,20.3718863 C95.4982818,19.9583767 95.2684221,19.4996767 95.1311519,19.0861672 M96.1408015,28.5909408 C95.5900218,28.5909408 94.4424223,27.9022113 94.5798624,26.6620224 C94.5798624,26.2029826 94.9930322,25.2847332 97.6562104,24.9176033 C98.8501895,26.5701125 98.2532,28.819951 96.1408015,28.5909408" id="Fill-5" fill="#24A9BD" sketch:type="MSShapeGroup"></path>
            <path d="M7.72314887,26.3173178 L7.72314887,22.4042671 C7.72314887,22.2449113 7.89048942,22.1405995 8.03353587,22.2109335 L11.9465866,24.1350951 C12.1057725,24.2132439 12.1073015,24.4397058 11.949135,24.520403 L8.0360842,26.5092923 C7.89286787,26.5820047 7.72314887,26.4780327 7.72314887,26.3173178" id="Fill-6" fill="#24A9BD" sketch:type="MSShapeGroup"></path>
            <path d="M27.3864286,26.3173178 L27.3864286,22.4042671 C27.3864286,22.2449113 27.5537692,22.1405995 27.6966457,22.2109335 L31.6096965,24.1350951 C31.7690523,24.2132439 31.7704114,24.4397058 31.6124147,24.520403 L27.6993639,26.5092923 C27.5561476,26.5820047 27.3864286,26.4780327 27.3864286,26.3173178" id="Fill-7" fill="#24A9BD" sketch:type="MSShapeGroup"></path>
        </g>
    </g>
</svg>